# AST/ASF file generated using VICON BodyLanguage
# -----------------------------------------------
:version 1.10
:name VICON
:units
  mass 1.0
  length 0.45
  angle deg
:documentation
   .ast/.asf automatically generated from VICON data using
   VICON BodyBuilder and BodyLanguage model FoxedUp or BRILLIANT.MOD
:root
   order TX TY TZ RX RY RZ
   axis XYZ
   position 0 0 0  
   orientation 0 0 0 
:bonedata
  begin
     id 1 
     name lhipjoint
     direction 0.627457 -0.725269 0.283342 
     length 2.53237 
     axis 0 0 0  XYZ
  end
  begin
     id 2 
     name lfemur
     direction 0.34202 -0.939693 0  
     length 7.32496  
     axis 0 0 20  XYZ
    dof rx ry rz
    limits (-160.0 20.0)
           (-70.0 70.0)
           (-60.0 70.0)
  end
  begin
     id 3 
     name ltibia
     direction 0.34202 -0.939693 0   
     length 7.69674   
     axis 0 0 20   XYZ
    dof rx
    limits (-10.0 170.0)
  end
  begin
     id 4 
     name lfoot
     direction 0.127289 -0.349722 0.928166   
     length 1.8612   
     axis -90 7.62852e-016 20   XYZ
    dof rx rz
    limits (-45.0 90.0)
           (-70.0 20.0)
  end
  begin
     id 5 
     name ltoes
     direction 1.53561e-011 -4.21864e-011 1   
     length 0.925608   
     axis -90 7.62852e-016 20   XYZ
    dof rx
    limits (-90.0 20.0)
  end
  begin
     id 6 
     name rhipjoint
     direction -0.609094 -0.738725 0.288599   
     length 2.48624  
     axis 0 0 0  XYZ 
  end
  begin
     id 7 
     name rfemur
     direction -0.34202 -0.939693 0   
     length 7.44259   
     axis 0 0 -20   XYZ
    dof rx ry rz
    limits (-160.0 20.0)
           (-70.0 70.0)
           (-70.0 60.0)
  end
  begin
     id 8 
     name rtibia
     direction -0.34202 -0.939693 0   
     length 7.7781   
     axis 0 0 -20   XYZ
    dof rx
    limits (-10.0 170.0)
 end
 begin
     id 9 
     name rfoot
     direction -0.107015 -0.294021 0.949789   
     length 2.14741  
     axis -90 -7.62852e-016 -20   XYZ
    dof rx rz
    limits (-45.0 90.0)
           (-20.0 70.0)
  end
  begin
     id 10 
     name rtoes
     direction -1.53497e-011 -4.21924e-011 1   
     length 1.0706   
     axis -90 -7.62852e-016 -20   XYZ
    dof rx
    limits (-90.0 20.0)
  end
  begin
     id 11 
     name lowerback
     direction -0.0142066 0.998112 -0.0597545   
     length 1.86627   
     axis 0 0 0   XYZ
    dof rx ry rz
    limits (-20.0 45.0)
           (-30.0 30.0)
           (-30.0 30.0)
  end
  begin
     id 12 
     name upperback
     direction 0.00547294 0.999744 0.0219437   
     length 1.86272   
     axis 0 0 0   XYZ
    dof rx ry rz
    limits (-20.0 45.0)
           (-30.0 30.0)
           (-30.0 30.0)
  end
  begin
     id 13 
     name thorax
     direction 0.0116162 0.998704 0.0495538   
     length 1.8703   
     axis 0 0 0   XYZ
    dof rx ry rz
    limits (-20.0 45.0)
           (-30.0 30.0)
           (-30.0 30.0)
  end
  begin
     id 14 
     name lowerneck
     direction -0.0106574 0.998739 0.0490586   
     length 1.8074   
     axis 0 0 0   XYZ
    dof rx ry rz
    limits (-20.0 45.0)
           (-30.0 30.0)
           (-30.0 30.0)
  end
  begin
     id 15 
     name upperneck
     direction 0.030527 0.976587 -0.212944   
     length 1.80681   
     axis 0 0 0   XYZ
    dof rx ry rz
    limits (-20.0 45.0)
           (-30.0 30.0)
           (-30.0 30.0)
  end
  begin
     id 16
     name head
     direction 0.00869225 0.997035 -0.0764531  
     length 1.8313  
     axis 0 0 0   XYZ
    dof rx ry rz
    limits (-20.0 45.0)
           (-30.0 30.0)
           (-30.0 30.0)
  end
  begin
     id 17 
     name lclavicle
     direction 0.915958 0.399447 0.0382386  
     length 3.78965  
     axis 0 0 0   XYZ
    dof ry rz
    limits (-20.0 10.0)
           (0.0 20.0)
  end
  begin
     id 18 
     name lhumerus
     direction 1 -4.48967e-011 3.19303e-027   
     length 4.78095   
     axis -180 -30 -90   XYZ
    dof rx ry rz
    limits (-60.0 90.0)
           (-90.0 90.0)
           (-90.0 90.0)
  end
  begin
     id 19
     name lradius
     direction 1 -4.48967e-011 -3.77974e-027   
     length 3.58615   
     axis -180 -30 -90   XYZ
    dof rx
    limits (-10.0 170.0)
  end
  begin
     id 20
     name lwrist
     direction 1 -4.48927e-011 1.2807e-027   
     length 1.79307   
     axis 1.91374e-015 90 90   XYZ
    dof ry
    limits (-180.0 0.0)
 end
  begin
     id 21 
     name lhand
     direction 1 -4.49036e-011 2.5614e-027   
     length 0.659812   
     axis -1.63439e-015 90 90   XYZ
    dof rx rz
    limits (-90.0 90.0)
           (-45.0 45.0)
  end
  begin
     id 22 
     name lfingers
     direction 1 -4.49052e-011 5.1228e-027   
     length 0.531957   
     axis -3.26879e-015 90 90   XYZ
    dof rx
    limits (0.0 90.0)
  end
  begin
     id 23
     name lthumb
     direction 0.707107 -6.35012e-011 0.707107   
     length 0.763787   
     axis -90 45 2.85299e-015   XYZ
    dof rx rz
    limits (-45.0 45.0)
           (-45.0 45.0)
  end
  begin
     id 24 
     name rclavicle
     direction -0.895351 0.435135 0.0948887   
     length 3.70497  
     axis 0 0 0   XYZ 
    dof ry rz
    limits (-10.0 20.0)
           (-20.0 0.0)
  end
  begin
     id 25 
     name rhumerus
     direction -1 -4.48971e-011 2.38946e-027  
     length 4.48913   
     axis -180 30 90   XYZ
    dof rx ry rz
    limits (-90.0 60.0)
           (-90.0 90.0)
           (-90.0 90.0)
  end
  begin
     id 26 
     name rradius
     direction -1 -4.4895e-011 4.38668e-027   
     length 3.7051   
     axis -180 30 90   XYZ
    dof rx
    limits (-10.0 170.0)
  end
  begin
     id 27 
     name rwrist
     direction -1 -4.49007e-011 1.2807e-027   
     length 1.85255   
     axis 1.91374e-015 -90 -90   XYZ
    dof ry
    limits (-180.0 0.0)
  end
  begin
     id 28
     name rhand
     direction -1 -4.48851e-011 2.5614e-027   
     length 0.449136   
     axis -1.63439e-015 -90 -90   XYZ
    dof rx rz
    limits (-90.0 90.0)
           (-45.0 45.0)
  end
  begin
     id 29
     name rfingers
     direction -1 -4.49128e-011 5.1228e-027   
     length 0.362105   
     axis -3.26879e-015 -90 -90   XYZ
    dof rx
    limits (0.0 90.0)
  end
  begin
     id 30
     name rthumb
     direction -0.707107 -6.34851e-011 0.707107   
     length 0.519912   
     axis -90 -45 -2.85299e-015   XYZ
    dof rx rz
    limits (-45.0 45.0)
           (-45.0 45.0)
  end
:hierarchy
  begin
    root lhipjoint rhipjoint lowerback
    lhipjoint lfemur
    lfemur ltibia
    ltibia lfoot
    lfoot ltoes
    rhipjoint rfemur
    rfemur rtibia
    rtibia rfoot
    rfoot rtoes
    lowerback upperback
    upperback thorax
    thorax lowerneck lclavicle rclavicle
    lowerneck upperneck
    upperneck head
    lclavicle lhumerus
    lhumerus lradius
    lradius lwrist
    lwrist lhand lthumb
    lhand lfingers
    rclavicle rhumerus
    rhumerus rradius
    rradius rwrist
    rwrist rhand rthumb
    rhand rfingers
  end

#!OML:ASF I:\Actors\actors\Patient Classification 2\Patient 1\Session 1\actor1.ASF
:FULLY-SPECIFIED
:DEGREES
1
root -0.633044 18.724 5.67493 5.38768 -3.05068 -1.30808
lowerback -2.20412 1.28349 -1.92713
upperback -3.89839 1.72188 0.161902
thorax -2.83176 0.9178 1.23883
lowerneck -10.3562 -2.74213 -2.03269
upperneck 25.2828 -4.55337 4.17731
head 9.85425 -1.8489 1.27952
rclavicle 4.63417e-015 -1.27222e-014
rhumerus -49.7033 -2.02729 -86.1119
rradius 41.5316
rwrist 13.0816
rhand -7.55321 -40.7056
rfingers 7.12502
rthumb 18.3387 -69.8611
lclavicle 4.63417e-015 -1.27222e-014
lhumerus -41.951 2.2348 88.9841
lradius 35.3083
lwrist -7.43975
lhand -7.41996 -28.7254
lfingers 7.12502
lthumb 18.4669 0.418003
rfemur 1.52138 4.93059 14.2365
rtibia -2.06736e-014
rfoot -15.9478 -10.6686
rtoes -3.60518
lfemur -7.18174 -8.12338 -12.4938
ltibia 20.3337
lfoot -23.1868 14.1453
ltoes -55.2533
2
root -0.633619 18.7211 5.68015 5.23538 -2.93715 -0.87424
lowerback -2.15169 1.23518 -2.36623
upperback -3.86166 1.65518 0.0381951
thorax -2.83095 0.894485 1.3569
lowerneck -10.2883 -2.7454 -2.02141
upperneck 25.2409 -4.56041 4.1834
head 9.82627 -1.85203 1.27962
rclavicle 1.24613e-014 -5.96354e-016
rhumerus -49.7369 -2.03999 -86.1284
rradius 41.5342
rwrist 13.0724
rhand -4.61039 -42.0566
rfingers 7.12502
rthumb 21.1677 -70.9209
lclavicle 1.24613e-014 -5.96354e-016
lhumerus -41.9856 2.20883 88.9698
lradius 35.2736
lwrist -7.4543
lhand -7.54109 -28.8676
lfingers 7.12502
lthumb 18.3504 0.286861
rfemur 1.72126 4.78752 13.7674
rtibia 7.95139e-015
rfoot -15.9847 -10.6305
rtoes -3.53082
lfemur -6.88703 -8.05911 -12.9858
ltibia 20.0104
lfoot -22.9403 14.0349
ltoes -55.248
3
root -0.634053 18.7179 5.68582 5.09326 -2.81896 -0.449739
lowerback -2.12642 1.18027 -2.80159
upperback -3.81702 1.58052 -0.0748973
thorax -2.80607 0.866768 1.48464
lowerneck -10.2876 -2.74878 -1.99845
upperneck 25.2386 -4.56783 4.17517
head 9.82485 -1.85428 1.27196
rclavicle -2.23384e-014 1.0138e-014
rhumerus -49.7529 -2.01382 -86.1487
rradius 41.5379
rwrist 13.0716
rhand -5.76757 -41.6552
rfingers 7.12502
rthumb 20.0558 -70.6401
lclavicle -2.23384e-014 1.0138e-014
lhumerus -41.9912 2.25147 88.9476
lradius 35.2244
lwrist -7.5053
lhand -7.64867 -28.8964
lfingers 7.12502
lthumb 18.2469 0.267717
rfemur 1.91901 4.6421 13.307
rtibia 4.77083e-015
rfoot -16.0458 -10.5726
rtoes -3.51524
lfemur -6.70591 -8.01566 -13.4657
ltibia 19.8838
lfoot -22.8042 13.8924
ltoes -55.2559
4
root -0.634027 18.718 5.68488 5.10177 -2.80845 -0.435588
lowerback -2.13707 1.17841 -2.81667
upperback -3.82739 1.57807 -0.083228
thorax -2.81094 0.866005 1.48462
lowerneck -10.3228 -2.76329 -1.9283
upperneck 25.2613 -4.58113 4.08743
head 9.83635 -1.86271 1.22742
rclavicle -7.52897e-015 1.45113e-014
rhumerus -49.7332 -2.01581 -86.1494
rradius 41.5264
rwrist 13.0632
rhand -7.36452 -40.9672
rfingers 7.12502
rthumb 18.5202 -70.1056
lclavicle -7.52897e-015 1.45113e-014
lhumerus -41.9645 2.30584 88.9223
lradius 35.1673
lwrist -7.55318
lhand -7.50096 -28.3626
lfingers 7.12502
lthumb 18.389 0.788179
rfemur 1.91684 4.62923 13.2919
rtibia 1.59028e-015
rfoot -16.0502 -10.5406
rtoes -3.51826
lfemur -6.66137 -8.06581 -13.4827
ltibia 19.7565
lfoot -22.7547 13.9691
ltoes -55.363
5
root -0.633989 18.7177 5.68432 5.10534 -2.82562 -0.433405
lowerback -2.16541 1.19216 -2.83414
upperback -3.82493 1.59755 -0.0774496
thorax -2.79412 0.876091 1.50091
lowerneck -10.3141 -2.78926 -1.87369
upperneck 25.258 -4.60027 3.97637
head 9.82997 -1.87887 1.1772
rclavicle -6.31141e-015 1.55052e-014
rhumerus -49.7119 -2.0244 -86.1218
rradius 41.5254
rwrist 13.0074
rhand -7.5328 -40.8546
rfingers 7.12502
rthumb 18.3583 -70.0083
lclavicle -6.31141e-015 1.55052e-014
lhumerus -41.9384 2.3077 88.9336
lradius 35.1345
lwrist -7.56029
lhand -7.13712 -27.4462
lfingers 7.12502
lthumb 18.7389 1.67119
rfemur 1.91131 4.64556 13.287
rtibia 1.11319e-014
rfoot -16.0565 -10.5188
rtoes -3.54193
lfemur -6.63013 -8.08131 -13.4927
ltibia 19.6928
lfoot -22.727 14.0523
ltoes -55.4804
6
root -0.634669 18.717 5.68479 5.10179 -2.84416 -0.427001
lowerback -2.23658 1.20515 -2.88186
upperback -3.79506 1.61838 -0.0519992
thorax -2.72652 0.887054 1.55579
lowerneck -10.3088 -2.81358 -1.90779
upperneck 25.2355 -4.62233 3.96044
head 9.82206 -1.8944 1.17486
rclavicle 2.64508e-014 1.17283e-014
rhumerus -49.6865 -2.00055 -86.0823
rradius 41.5312
rwrist 12.9664
rhand -7.52908 -40.8648
rfingers 7.12502
rthumb 18.3619 -70.0182
lclavicle 2.64508e-014 1.17283e-014
lhumerus -41.9064 2.31515 88.9803
lradius 35.119
lwrist -7.58017
lhand -6.98251 -27.0111
lfingers 7.12502
lthumb 18.8876 2.09189
rfemur 1.91423 4.66369 13.2792
rtibia 1.59028e-015
rfoot -16.0624 -10.5195
rtoes -3.54355
lfemur -6.62339 -8.0625 -13.5029
ltibia 19.6932
lfoot -22.7123 14.0899
ltoes -55.4744
7
root -0.635613 18.7172 5.68442 5.0888 -2.84093 -0.42945
lowerback -2.25017 1.21099 -2.90287
upperback -3.78092 1.62721 -0.038893
thorax -2.70576 0.891833 1.58151
lowerneck -10.3289 -2.81779 -1.95262
upperneck 25.2351 -4.62942 4.00181
head 9.82819 -1.89698 1.19582
rclavicle 1.55052e-014 -1.23246e-014
rhumerus -49.6596 -2.00735 -86.0586
rradius 41.5014
rwrist 12.986
rhand -7.55606 -40.8382
rfingers 7.12502
rthumb 18.336 -69.994
lclavicle 1.55052e-014 -1.23246e-014
lhumerus -41.9118 2.29382 89.0149
lradius 35.1337
lwrist -7.57674
lhand -7.02376 -27.0145
lfingers 7.12502
lthumb 18.848 2.09232
rfemur 1.92315 4.66244 13.2856
rtibia -1.59028e-014
rfoot -16.0545 -10.5324
rtoes -3.38571
lfemur -6.61242 -8.00975 -13.4928
ltibia 19.692
lfoot -22.7034 14.0378
ltoes -55.4275
8
root -0.636443 18.7181 5.68315 5.08187 -2.83665 -0.444607
lowerback -2.2302 1.21847 -2.88747
upperback -3.78771 1.63635 -0.0401168
thorax -2.72393 0.896274 1.571
lowerneck -10.3135 -2.81072 -1.99569
upperneck 25.212 -4.62435 4.05988
head 9.81934 -1.89276 1.22416
rclavicle 5.72748e-015 -1.31198e-014
rhumerus -49.6613 -2.0356 -86.0518
rradius 41.4807
rwrist 13.0083
rhand -7.54973 -40.8371
rfingers 7.12502
rthumb 18.342 -69.9923
lclavicle 5.72748e-015 -1.31198e-014
lhumerus -41.9358 2.27115 89.0223
lradius 35.1699
lwrist -7.56606
lhand -7.00865 -27.0017
lfingers 7.12502
lthumb 18.8625 2.10369
rfemur 1.91655 4.66078 13.3043
rtibia -4.77083e-015
rfoot -16.0689 -10.5376
rtoes -3.27458
lfemur -6.60222 -8.03706 -13.468
ltibia 19.693
lfoot -22.7692 13.9832
ltoes -55.3207
9
root -0.63702 18.7186 5.68227 5.08656 -2.82744 -0.460796
lowerback -2.24132 1.22498 -2.86651
upperback -3.78833 1.64528 -0.0418566
thorax -2.71802 0.900074 1.55771
lowerneck -10.2594 -2.80366 -2.0413
upperneck 25.1269 -4.61772 4.12452
head 9.78096 -1.88875 1.25568
rclavicle 1.48095e-014 -7.7526e-015
rhumerus -49.6644 -2.03706 -86.0527
rradius 41.4887
rwrist 12.9812
rhand -7.56784 -40.8971
rfingers 7.12502
rthumb 18.3246 -70.0539
lclavicle 1.48095e-014 -7.7526e-015
lhumerus -41.9378 2.2857 89.0242
lradius 35.206
lwrist -7.60553
lhand -7.0084 -26.973
lfingers 7.12502
lthumb 18.8627 2.1324
rfemur 1.90482 4.65298 13.3251
rtibia -3.18055e-015
rfoot -16.092 -10.5413
rtoes -3.51756
lfemur -6.60409 -8.14603 -13.4463
ltibia 19.7052
lfoot -22.863 13.9808
ltoes -55.1347
